<?xml version="1.0" encoding="UTF-8" standalone="no"?>
<!-- Created with Inkscape (http://www.inkscape.org/) -->

<svg
   xmlns:dc="http://purl.org/dc/elements/1.1/"
   xmlns:cc="http://creativecommons.org/ns#"
   xmlns:rdf="http://www.w3.org/1999/02/22-rdf-syntax-ns#"
   xmlns:svg="http://www.w3.org/2000/svg"
   xmlns="http://www.w3.org/2000/svg"
   xmlns:sodipodi="http://sodipodi.sourceforge.net/DTD/sodipodi-0.dtd"
   xmlns:inkscape="http://www.inkscape.org/namespaces/inkscape"
   height="32"
   width="32"
   viewBox="0 0 8.4666665 8.4666669"
   version="1.1"
   id="svg4"
   inkscape:version="0.92.3 (2405546, 2018-03-11)"
   sodipodi:docname="edit.svg">
  <defs
     id="defs8" />
  <sodipodi:namedview
     pagecolor="#8488ff"
     bordercolor="#666666"
     borderopacity="1"
     objecttolerance="10"
     gridtolerance="10"
     guidetolerance="10"
     inkscape:pageopacity="0"
     inkscape:pageshadow="2"
     inkscape:window-width="1920"
     inkscape:window-height="999"
     id="namedview6"
     showgrid="false"
     units="px"
     inkscape:zoom="4.7572176"
     inkscape:cx="-94.601112"
     inkscape:cy="-6.4923343"
     inkscape:window-x="0"
     inkscape:window-y="28"
     inkscape:window-maximized="1"
     inkscape:current-layer="svg4" />
  <metadata
     id="metadata2">
    <rdf:RDF>
      <cc:Work
         rdf:about="">
        <dc:format>image/svg+xml</dc:format>
        <dc:type
           rdf:resource="http://purl.org/dc/dcmitype/StillImage" />
        <dc:title />
      </cc:Work>
    </rdf:RDF>
  </metadata>
  <path
     inkscape:connector-curvature="0"
     id="path13773"
     d="m 4.1415378,-0.24216663 c -0.01946,0 -0.01583,0.023253 0.0011,0.058757 0.01544,-0.036152 0.01836,-0.059145 -0.0011,-0.058757 z m 0.0011,0.058757 c -0.07524,0.1762068 -0.490185,0.7075666 -0.5487129,0.8542007 -0.105694,-0.1170614 -0.6796661,-0.470877 -0.811602,-0.6099831 -0.01715,0.1909176 -0.2477311,0.8246496 -0.257973,0.98198253 -0.1366751,-0.078666 -0.792126,-0.23789763 -0.9604661,-0.32939833 0.04269,0.1867331 0.01918,0.86034823 0.05799,1.01353973 -0.1545869,-0.032506 -0.82649595,0.01855 -1.01496795,-0.016393 0.09832,0.1644727 0.284051,0.8124194 0.368287,0.9460467 -0.157089,0.016824 -0.780405,0.2732079 -0.970406,0.2981645 0.144367,0.1260993 0.521259,0.6848102 0.642641,0.7858233 -0.144173,0.064559 -0.657869,0.501032 -0.830825,0.5834301 0.17625,0.075302 0.707499,0.4903549 0.854088,0.5488532 -0.117171,0.1059313 -0.471,0.6798707 -0.609983,0.8115782 0.190734,0.017039 0.824205,0.2475825 0.98187005,0.2579793 -0.07869,0.136906 -0.23769005,0.792057 -0.32918205,0.960369 0.18683,-0.042709 0.86055105,-0.019198 1.01354605,-0.058132 -0.03254,0.1544643 0.01862,0.8268281 -0.01639,1.0152011 0.16444,-0.09834 0.812566,-0.284166 0.94605,-0.368397 0.0168,0.156987 0.273172,0.780603 0.298055,0.970528 0.125998,-0.144347 0.685119,-0.521567 0.785938,-0.642856 0.06446,0.144067 0.501,0.658128 0.583335,0.831035 0.07522,-0.176207 0.490443,-0.70761 0.548931,-0.854201 0.105922,0.117147 0.679629,0.470942 0.811492,0.609983 0.01711,-0.190831 0.247655,-0.824499 0.257975,-0.981982 0.136679,0.07867 0.792124,0.237897 0.960466,0.329398 -0.04272,-0.18669 -0.01924,-0.860629 -0.05811,-1.0136479 0.154447,0.032528 0.826822,-0.01855 1.015185,0.016608 -0.0983,-0.1642999 -0.284247,-0.8124192 -0.368502,-0.946068 0.15697,-0.016825 0.780711,-0.2732727 0.970623,-0.2981647 C 8.3176659,5.3861394 7.9404409,4.8269756 7.8191299,4.7261566 7.9631989,4.6617046 8.4770659,4.2252538 8.6500649,4.1428128 8.4738149,4.0675328 7.9425679,3.6524793 7.7959769,3.5940027 7.9131409,3.4880715 8.2669609,2.914132 8.4059619,2.7823814 8.2151909,2.7653394 7.5814959,2.534734 7.4239789,2.5244235 c 0.07869,-0.1369058 0.237803,-0.7922079 0.329295,-0.9604553 -0.18683,0.042666 -0.860553,0.019197 -1.013548,0.058088 0.03254,-0.1544209 -0.01859,-0.82656933 0.01637,-1.01507113 -0.164511,0.098338 -0.812579,0.2841655 -0.946048,0.3683971 -0.01678,-0.1569436 -0.27309,-0.7804728 -0.298058,-0.9705061 -0.126058,0.1443692 -0.685125,0.5214591 -0.785938,0.6427482 -0.06445,-0.1440672 -0.501025,-0.6579552 -0.583443,-0.830948 z m 1.3693811,0.1881998 c 0.02587,-0.029637 0.03555,-0.050625 0.01693,-0.056255 -0.01862,-0.00561 -0.02206,0.017256 -0.01693,0.056255 z m 1.2441049,0.60211 c 0.03378,-0.020276 0.0495,-0.037165 0.03353,-0.048274 -0.01598,-0.011217 -0.02635,0.00949 -0.03353,0.048274 z m 0.997166,0.95698273 c 0.03836,-0.00863 0.05861,-0.019845 0.04685,-0.035397 -0.01173,-0.01553 -0.02809,0.00216 -0.04685,0.035397 z m 0.652688,1.2184132 c 0.03913,0.00345 0.06187,-0.00217 0.05548,-0.019413 -0.0064,-0.018336 -0.02697,-0.00777 -0.05548,0.019413 z m 0.244103,1.3604312 c 0.03619,0.015531 0.05916,0.018336 0.05876,-0.00217 -4.23e-4,-0.019413 -0.02324,-0.015745 -0.05876,0.00217 z m -0.188075,1.3692751 c 0.0296,0.025842 0.05051,0.035634 0.05614,0.017039 0.0056,-0.01855 -0.01719,-0.02213 -0.05614,-0.017039 z m -0.602142,1.2442329 c 0.02017,0.033671 0.03707,0.049352 0.04817,0.033412 0.01111,-0.015962 -0.0095,-0.026228 -0.04817,-0.033412 z m -0.957079,0.997146 c 0.0088,0.03831 0.02002,0.0585 0.0355,0.04674 0.01549,-0.01165 -8.74e-4,-0.02798 -0.0355,-0.04674 z m -1.218442,0.652585 c -0.0035,0.03915 8.74e-4,0.06186 0.01933,0.05548 0.01838,-0.0065 0.0077,-0.02694 -0.01933,-0.05548 z m -1.360422,0.244217 c -0.01544,0.03613 -0.01825,0.05904 0.0013,0.05865 0.01943,0 0.01568,-0.02319 -0.0013,-0.05865 z m -1.369273,-0.188178 c -0.02585,0.02959 -0.03565,0.0505 -0.01704,0.05613 0.01862,0.0056 0.02214,-0.01726 0.01704,-0.05613 z m -1.244106,-0.602132 c -0.03375,0.02027 -0.0495,0.03706 -0.03353,0.04817 0.01596,0.01122 0.02635,-0.0095 0.03353,-0.04817 z M 0.71337885,6.9028047 c -0.03836,0.00863 -0.05861,0.020061 -0.04686,0.035483 0.01176,0.015531 0.02808,-0.00217 0.04686,-0.035483 z m -0.652688,-1.2183486 c -0.03913,-0.00345 -0.06187,0.00217 -0.05549,0.019198 0.0064,0.018336 0.02698,0.00777 0.05549,-0.019198 z m -0.244105,-1.3604311 c -0.03619,-0.015531 -0.05916,-0.018336 -0.05876,0.00217 4.31e-4,0.0194 0.02325,0.015734 0.05876,-0.00217 z m 0.188184,-1.3692534 c -0.02966,-0.025927 -0.05061,-0.035656 -0.05625,-0.017042 -0.0056,0.01855 0.01721,0.022175 0.05625,0.017042 z m 0.602119,-1.2442113 c -0.02019,-0.0338 -0.03716,-0.049504 -0.04827,-0.033542 -0.01111,0.015962 0.0096,0.026337 0.04827,0.033542 z M 1.5638628,0.71339237 c -0.0088,-0.038352 -0.01999,-0.058606 -0.0355,-0.04685 -0.01549,0.011648 8.63e-4,0.028063 0.0355,0.04685 z m 1.218439,-0.6525842 c 0.0035,-0.039193 -8.73e-4,-0.061885 -0.01933,-0.055478 -0.01838,0.00647 -0.0078,0.02692 0.01933,0.055478 z M 4.2332678,1.796841 A 2.4365061,2.4365061 0 0 1 6.6698198,4.2333869 2.4365061,2.4365061 0 0 1 4.2332678,6.6698253 2.4365061,2.4365061 0 0 1 1.7968248,4.2333869 2.4365061,2.4365061 0 0 1 4.2332678,1.796841 Z"
     style="opacity:1;fill:#ffffff;fill-opacity:1;stroke:none;stroke-width:0.2157018;stroke-linejoin:round;stroke-miterlimit:4;stroke-dasharray:0.64710541, 0.64710541;stroke-dashoffset:0;stroke-opacity:1" />
</svg>
