<?xml version="1.0" encoding="UTF-8" standalone="no"?>
<!-- Created with Inkscape (http://www.inkscape.org/) -->

<svg
   xmlns:dc="http://purl.org/dc/elements/1.1/"
   xmlns:cc="http://creativecommons.org/ns#"
   xmlns:rdf="http://www.w3.org/1999/02/22-rdf-syntax-ns#"
   xmlns:svg="http://www.w3.org/2000/svg"
   xmlns="http://www.w3.org/2000/svg"
   xmlns:sodipodi="http://sodipodi.sourceforge.net/DTD/sodipodi-0.dtd"
   xmlns:inkscape="http://www.inkscape.org/namespaces/inkscape"
   height="32"
   width="32"
   viewBox="0 0 8.4666665 8.4666669"
   version="1.1"
   id="svg4"
   inkscape:version="0.91 r13725"
   sodipodi:docname="mount_on.svg">
  <defs
     id="defs8" />
  <sodipodi:namedview
     pagecolor="#8488ff"
     bordercolor="#666666"
     borderopacity="1"
     objecttolerance="10"
     gridtolerance="10"
     guidetolerance="10"
     inkscape:pageopacity="0"
     inkscape:pageshadow="2"
     inkscape:window-width="1920"
     inkscape:window-height="870"
     id="namedview6"
     showgrid="false"
     units="px"
     inkscape:zoom="9.5144351"
     inkscape:cx="-47.670929"
     inkscape:cy="6.8631433"
     inkscape:window-x="0"
     inkscape:window-y="24"
     inkscape:window-maximized="1"
     inkscape:current-layer="g4141" />
  <metadata
     id="metadata2">
    <rdf:RDF>
      <cc:Work
         rdf:about="">
        <dc:format>image/svg+xml</dc:format>
        <dc:type
           rdf:resource="http://purl.org/dc/dcmitype/StillImage" />
        <dc:title />
      </cc:Work>
    </rdf:RDF>
  </metadata>
  <g
     id="g4828"
     transform="matrix(1.0411075,0,0,1.0411075,-0.17402151,-0.06233784)">
    <g
       id="g4140"
       transform="matrix(1.210234,0,0,1.210234,-0.91203793,0.02760536)">
      <g
         id="g4141"
         transform="matrix(1.0195861,0,0,1.0195861,-0.1297071,-0.01280257)">
        <path
           id="rect74"
           d="m 2.0688076,0.11759033 c -0.3113975,0 -0.5620856,0.25068834 -0.5620856,0.56208591 l 0,5.30864816 c 0,0.3113975 0.2506881,0.5620846 0.5620856,0.5620846 l 4.4565737,0 c 0.3113991,0 0.5620852,-0.2506871 0.5620852,-0.5620846 l 0,-5.30864816 c 0,-0.31139757 -0.2506861,-0.56208591 -0.5620852,-0.56208591 z m 0.2741423,0.5566681 A 0.29339771,0.29339776 0 0 1 2.6363455,0.9676535 0.29339771,0.29339776 0 0 1 2.3429499,1.2610489 0.29339771,0.29339776 0 0 1 2.049555,0.9676535 0.29339771,0.29339776 0 0 1 2.3429499,0.67425843 Z m 3.9021897,0 A 0.29339768,0.29339773 0 0 1 6.5385352,0.9676535 0.29339768,0.29339773 0 0 1 6.2451396,1.2610489 0.29339768,0.29339773 0 0 1 5.9517447,0.9676535 0.29339768,0.29339773 0 0 1 6.2451396,0.67425843 Z M 4.2971116,2.9133985 a 0.26222416,0.2622242 0 0 1 0.262216,0.262216 0.26222416,0.2622242 0 0 1 -0.262216,0.262215 0.26222416,0.2622242 0 0 1 -0.2622497,-0.262215 0.26222416,0.2622242 0 0 1 0.2622497,-0.262216 z M 2.3429499,5.4515907 A 0.29339766,0.2933977 0 0 1 2.6363455,5.7449866 0.29339766,0.2933977 0 0 1 2.3429499,6.0383812 0.29339766,0.2933977 0 0 1 2.049555,5.7449866 0.29339766,0.2933977 0 0 1 2.3429499,5.4515907 Z"
           style="color:#000000;clip-rule:nonzero;display:inline;overflow:visible;visibility:visible;opacity:1;isolation:auto;mix-blend-mode:normal;color-interpolation:sRGB;color-interpolation-filters:linearRGB;solid-color:#000000;solid-opacity:1;fill:#ffffff;fill-opacity:1;fill-rule:nonzero;stroke:none;stroke-width:0.05947915;stroke-linecap:butt;stroke-linejoin:miter;stroke-miterlimit:4;stroke-dasharray:none;stroke-dashoffset:0;stroke-opacity:1;color-rendering:auto;image-rendering:auto;shape-rendering:auto;text-rendering:auto;enable-background:accumulate"
           inkscape:connector-curvature="0" />
        <path
           inkscape:connector-curvature="0"
           id="path76-3-3"
           d="M 4.23335,0.795644 A 2.4570921,2.4570925 0 0 0 1.776232,3.25273 2.4570921,2.4570925 0 0 0 4.23335,5.709815 2.4570921,2.4570925 0 0 0 6.690435,3.25273 2.4570921,2.4570925 0 0 0 4.23335,0.795644 Z m 0,2.200862 A 0.25623223,0.25623227 0 0 1 4.489574,3.25273 0.25623223,0.25623227 0 0 1 4.23335,3.508953 0.25623223,0.25623227 0 0 1 3.977093,3.25273 0.25623223,0.25623227 0 0 1 4.23335,2.996506 Z"
           style="color:#000000;clip-rule:nonzero;display:inline;overflow:visible;visibility:visible;opacity:1;isolation:auto;mix-blend-mode:normal;color-interpolation:sRGB;color-interpolation-filters:linearRGB;solid-color:#000000;solid-opacity:1;fill:#000000;fill-opacity:0.9969419;fill-rule:nonzero;stroke:none;stroke-width:0.45426726;stroke-linecap:butt;stroke-linejoin:miter;stroke-miterlimit:4;stroke-dasharray:none;stroke-dashoffset:0;stroke-opacity:1;color-rendering:auto;image-rendering:auto;shape-rendering:auto;text-rendering:auto;enable-background:accumulate" />
        <path
           inkscape:connector-curvature="0"
           id="path76-3-3-5"
           d="M 4.23335,1.075143 A 2.1775662,2.1775665 0 0 0 2.055764,3.25273 2.1775662,2.1775665 0 0 0 4.23335,5.430283 2.1775662,2.1775665 0 0 0 6.410903,3.25273 2.1775662,2.1775665 0 0 0 4.23335,1.075143 Z m 0,1.921363 A 0.25623223,0.25623227 0 0 1 4.489574,3.25273 0.25623223,0.25623227 0 0 1 4.23335,3.508953 0.25623223,0.25623227 0 0 1 3.977093,3.25273 0.25623223,0.25623227 0 0 1 4.23335,2.996506 Z"
           style="color:#000000;clip-rule:nonzero;display:inline;overflow:visible;visibility:visible;opacity:1;isolation:auto;mix-blend-mode:normal;color-interpolation:sRGB;color-interpolation-filters:linearRGB;solid-color:#000000;solid-opacity:1;fill:#ffffff;fill-opacity:1;fill-rule:nonzero;stroke:none;stroke-width:0.40258846;stroke-linecap:butt;stroke-linejoin:miter;stroke-miterlimit:4;stroke-dasharray:none;stroke-dashoffset:0;stroke-opacity:1;color-rendering:auto;image-rendering:auto;shape-rendering:auto;text-rendering:auto;enable-background:accumulate" />
        <path
           inkscape:connector-curvature="0"
           id="path76-3-3-5-6"
           d="M 4.233349,2.441909 A 0.81079716,0.81079729 0 0 0 3.42253,3.252729 0.81079716,0.81079729 0 0 0 4.233349,4.063517 0.81079716,0.81079729 0 0 0 5.044137,3.252729 0.81079716,0.81079729 0 0 0 4.233349,2.441909 Z m 0,0.562699 A 0.24812939,0.24812943 0 0 1 4.48147,3.252729 0.24812939,0.24812943 0 0 1 4.233349,3.50085 0.24812939,0.24812943 0 0 1 3.985195,3.252729 0.24812939,0.24812943 0 0 1 4.233349,3.004608 Z"
           style="color:#000000;clip-rule:nonzero;display:inline;overflow:visible;visibility:visible;opacity:1;isolation:auto;mix-blend-mode:normal;color-interpolation:sRGB;color-interpolation-filters:linearRGB;solid-color:#000000;solid-opacity:1;fill:#000000;fill-opacity:1;fill-rule:nonzero;stroke:none;stroke-width:0.14990021;stroke-linecap:butt;stroke-linejoin:miter;stroke-miterlimit:4;stroke-dasharray:none;stroke-dashoffset:0;stroke-opacity:1;color-rendering:auto;image-rendering:auto;shape-rendering:auto;text-rendering:auto;enable-background:accumulate" />
        <path
           id="path264-7"
           d="M 4.150129,4.367816 A 0.26370229,0.26370233 0 0 0 3.886447,4.631498 0.26370229,0.26370233 0 0 0 3.992166,4.842237 l -1.93e-4,3.44e-4 1.536844,1.099382 6.4e-5,-1.67e-4 A 0.55754201,0.55754207 0 0 0 5.84534,6.040426 0.55754201,0.55754207 0 0 0 6.402872,5.482893 0.55754201,0.55754207 0 0 0 5.98479,4.943807 L 5.985187,4.943014 4.231174,4.38065 4.23114,4.380721 A 0.26370229,0.26370233 0 0 0 4.15013,4.367831 Z"
           style="color:#000000;clip-rule:nonzero;display:inline;overflow:visible;visibility:visible;opacity:1;isolation:auto;mix-blend-mode:normal;color-interpolation:sRGB;color-interpolation-filters:linearRGB;solid-color:#000000;solid-opacity:1;fill:#ffffff;fill-opacity:1;fill-rule:nonzero;stroke:#000000;stroke-width:0.57940322;stroke-linecap:butt;stroke-linejoin:round;stroke-miterlimit:4;stroke-dasharray:none;stroke-dashoffset:0;stroke-opacity:1;color-rendering:auto;image-rendering:auto;shape-rendering:auto;text-rendering:auto;enable-background:accumulate"
           inkscape:connector-curvature="0" />
        <path
           inkscape:connector-curvature="0"
           id="path264"
           d="m 4.15013,4.367842 a 0.26370229,0.26370233 0 0 0 -0.263683,0.263683 0.26370229,0.26370233 0 0 0 0.10572,0.210739 l -1.93e-4,3.44e-4 1.536843,1.099382 6.4e-5,-1.93e-4 A 0.55754198,0.55754207 0 0 0 5.845339,6.040427 0.55754198,0.55754207 0 0 0 6.402872,5.482895 0.55754198,0.55754207 0 0 0 5.984789,4.943809 l 3.97e-4,-7.93e-4 -1.75401,-0.562361 -3.3e-5,6.5e-5 A 0.26370229,0.26370233 0 0 0 4.150133,4.36784 Z"
           style="color:#000000;clip-rule:nonzero;display:inline;overflow:visible;visibility:visible;opacity:1;isolation:auto;mix-blend-mode:normal;color-interpolation:sRGB;color-interpolation-filters:linearRGB;solid-color:#000000;solid-opacity:1;fill:#ffffff;fill-opacity:1;fill-rule:nonzero;stroke:none;stroke-width:0.0961251;stroke-linecap:butt;stroke-linejoin:miter;stroke-miterlimit:4;stroke-dasharray:none;stroke-dashoffset:0;stroke-opacity:1;color-rendering:auto;image-rendering:auto;shape-rendering:auto;text-rendering:auto;enable-background:accumulate" />
      </g>
    </g>
  </g>
</svg>
