<?xml version="1.0" encoding="UTF-8" standalone="no"?>
<!-- Created with Inkscape (http://www.inkscape.org/) -->

<svg
   xmlns:dc="http://purl.org/dc/elements/1.1/"
   xmlns:cc="http://creativecommons.org/ns#"
   xmlns:rdf="http://www.w3.org/1999/02/22-rdf-syntax-ns#"
   xmlns:svg="http://www.w3.org/2000/svg"
   xmlns="http://www.w3.org/2000/svg"
   xmlns:sodipodi="http://sodipodi.sourceforge.net/DTD/sodipodi-0.dtd"
   xmlns:inkscape="http://www.inkscape.org/namespaces/inkscape"
   height="32"
   width="32"
   viewBox="0 0 8.4666665 8.4666669"
   version="1.1"
   id="svg4"
   inkscape:version="0.91 r13725"
   sodipodi:docname="profile.svg">
  <defs
     id="defs8" />
  <sodipodi:namedview
     pagecolor="#8488ff"
     bordercolor="#666666"
     borderopacity="1"
     objecttolerance="10"
     gridtolerance="10"
     guidetolerance="10"
     inkscape:pageopacity="0"
     inkscape:pageshadow="2"
     inkscape:window-width="1920"
     inkscape:window-height="926"
     id="namedview6"
     showgrid="false"
     units="px"
     inkscape:zoom="2.3786088"
     inkscape:cx="-11.467704"
     inkscape:cy="-16.74214"
     inkscape:window-x="0"
     inkscape:window-y="24"
     inkscape:window-maximized="1"
     inkscape:current-layer="svg4" />
  <metadata
     id="metadata2">
    <rdf:RDF>
      <cc:Work
         rdf:about="">
        <dc:format>image/svg+xml</dc:format>
        <dc:type
           rdf:resource="http://purl.org/dc/dcmitype/StillImage" />
        <dc:title></dc:title>
      </cc:Work>
    </rdf:RDF>
  </metadata>
  <path
     d="m 4.2333333,0.51593691 c -2.0520025,0 -3.71739602,1.66539369 -3.71739602,3.71739609 0,2.0520026 1.66539352,3.7173971 3.71739602,3.7173971 2.0520025,0 3.7173959,-1.6653945 3.7173959,-3.7173971 0,-2.0520024 -1.6653934,-3.71739609 -3.7173959,-3.71739609 z m 0,1.11521839 c 0.6170873,0 1.1152181,0.4981314 1.1152181,1.1152195 0,0.6170874 -0.4981308,1.1152181 -1.1152181,1.1152181 -0.6170882,0 -1.1152195,-0.4981307 -1.1152195,-1.1152181 0,-0.6170881 0.4981313,-1.1152195 1.1152195,-1.1152195 z m 0,5.2787038 c -0.9293486,0 -1.7508935,-0.4758276 -2.2304375,-1.1970028 0.011128,-0.7397617 1.4869581,-1.1449571 2.2304375,-1.1449571 0.7397616,0 2.2192855,0.4051954 2.2304375,1.1449571 C 5.9842266,6.4340315 5.1626826,6.9098591 4.2333333,6.9098591 Z"
     id="path4"
     inkscape:connector-curvature="0"
     style="fill:#1565c0;fill-opacity:1" />
</svg>
